<svg xmlns="http://www.w3.org/2000/svg" version="1.1" xmlns:xlink="http://www.w3.org/1999/xlink" width="200" height="200"><svg xmlns="http://www.w3.org/2000/svg" version="1.1" xmlns:xlink="http://www.w3.org/1999/xlink" viewBox="0 0 200 200"><rect width="200" height="200" fill="url('#gradient')"></rect><defs><linearGradient id="SvgjsLinearGradient1001" gradientTransform="rotate(89 0.5 0.5)"><stop offset="0%" stop-color="#eff6ff"></stop><stop offset="100%" stop-color="#eff6ff"></stop></linearGradient></defs><g><g fill="#4f39f6" transform="matrix(2.0711124138941814,0,0,2.0711124138941814,31.06189196325809,114.71962821040181)" stroke="#1e2939" stroke-width="0.65"><path d="M9.98 0L9.15-2.66L4.45-2.66L3.63 0L-0.03 0L5.19-14.22L8.41-14.22L13.66 0L9.98 0ZM6.80-10.23L5.27-5.30L8.33-5.30L6.80-10.23ZM20.31-4.82L18.13-4.82L18.13 0L14.70 0L14.70-14.22L20.37-14.22Q22.00-14.22 23.26-13.62Q24.51-13.02 25.20-11.91Q25.89-10.80 25.89-9.39L25.89-9.39Q25.89-7.31 24.40-6.07Q22.91-4.82 20.31-4.82L20.31-4.82ZM18.13-11.57L18.13-7.47L20.37-7.47Q21.37-7.47 21.89-7.97Q22.41-8.47 22.41-9.38L22.41-9.38Q22.41-10.37 21.88-10.97Q21.34-11.56 20.41-11.57L20.41-11.57L18.13-11.57ZM31.37-14.22L31.37 0L27.95 0L27.95-14.22L31.37-14.22ZM46.06-3.78L46.06-3.78Q46.06-4.53 45.53-4.95Q45-5.37 43.66-5.82Q42.32-6.27 41.47-6.69L41.47-6.69Q38.71-8.05 38.71-10.42L38.71-10.42Q38.71-11.60 39.40-12.50Q40.09-13.41 41.35-13.91Q42.61-14.41 44.18-14.41L44.18-14.41Q45.71-14.41 46.93-13.87Q48.14-13.32 48.82-12.31Q49.49-11.30 49.49-10L49.49-10L46.07-10Q46.07-10.87 45.54-11.35Q45.01-11.83 44.10-11.83L44.10-11.83Q43.18-11.83 42.65-11.42Q42.12-11.02 42.12-10.39L42.12-10.39Q42.12-9.84 42.71-9.40Q43.29-8.96 44.77-8.48Q46.24-8.01 47.19-7.46L47.19-7.46Q49.49-6.13 49.49-3.80L49.49-3.80Q49.49-1.93 48.09-0.87Q46.68 0.20 44.23 0.20L44.23 0.20Q42.50 0.20 41.10-0.42Q39.70-1.04 38.99-2.12Q38.28-3.20 38.28-4.61L38.28-4.61L41.72-4.61Q41.72-3.47 42.31-2.92Q42.90-2.38 44.23-2.38L44.23-2.38Q45.08-2.38 45.57-2.75Q46.06-3.12 46.06-3.78ZM51.25-14.22L55.75-14.22L58.93-4.33L62.09-14.22L66.60-14.22L66.60 0L63.16 0L63.16-3.32L63.50-10.12L60.06 0L57.79 0L54.35-10.13L54.68-3.32L54.68 0L51.25 0L51.25-14.22Z"></path></g></g></svg><style>@media (prefers-color-scheme: light) { :root { filter: none; } }
@media (prefers-color-scheme: dark) { :root { filter: none; } }
</style></svg>